HIERARCHY
ROOT hip
{
	OFFSET 0.000000 0.000000 0.000000 
	CHANNELS 6 Xposition Yposition Zposition Xrotation Zrotation Yrotation
	JOINT abdomen
	{
		OFFSET 0.000000 3.402643 0.000000 
		CHANNELS 3 Xrotation Zrotation Yrotation
		JOINT chest
		{
			OFFSET 0.000000 8.438565 -0.680529 
			CHANNELS 3 Xrotation Zrotation Yrotation
			JOINT neck
			{
				OFFSET 0.000000 10.207942 -0.272212 
				CHANNELS 3 Xrotation Zrotation Yrotation
				JOINT head
				{
					OFFSET 0.000000 3.130431 0.000000 
					CHANNELS 3 Xrotation Zrotation Yrotation
					End Site
					{
						OFFSET 0.000000 3.130435 0.000000 
					}
				}
			}
			JOINT lCollar
			{
				OFFSET 3.470700 6.669187 -0.816635 
				CHANNELS 3 Yrotation Zrotation Xrotation
				JOINT lShldr
				{
					OFFSET 3.198488 0.000000 0.000000 
					CHANNELS 3 Zrotation Yrotation Xrotation
					JOINT lForeArm
					{
						OFFSET 10.139888 0.000000 0.000000 
						CHANNELS 3 Yrotation Zrotation Xrotation
						JOINT lHand
						{
							OFFSET 8.370511 0.000000 0.000000 
							CHANNELS 3 Zrotation Yrotation Xrotation
							End Site
							{
								OFFSET 4.083176 0.000000 0.000000 
							}
						}
					}
				}
			}
			JOINT rCollar
			{
				OFFSET -3.470700 6.669187 -0.816635 
				CHANNELS 3 Yrotation Zrotation Xrotation
				JOINT rShldr
				{
					OFFSET -3.198488 0.000000 0.000000 
					CHANNELS 3 Zrotation Yrotation Xrotation
					JOINT rForeArm
					{
						OFFSET -10.139888 0.000000 0.000000 
						CHANNELS 3 Yrotation Zrotation Xrotation
						JOINT rHand
						{
							OFFSET -8.370511 0.000000 0.000000 
							CHANNELS 3 Zrotation Yrotation Xrotation
							End Site
							{
								OFFSET -4.083176 0.000000 0.000000 
							}
						}
					}
				}
			}
		}
	}
	JOINT lThigh
	{
		OFFSET 5.308129 -1.633274 1.361059 
		CHANNELS 3 Xrotation Zrotation Yrotation
		JOINT lShin
		{
			OFFSET -2.041588 -20.007561 0.000000 
			CHANNELS 3 Xrotation Zrotation Yrotation
			JOINT lFoot
			{
				OFFSET 0.000000 -19.190928 -1.224953 
				CHANNELS 3 Xrotation Yrotation Zrotation
				End Site
				{
					OFFSET 0.000000 -2.449906 4.627600 
				}
			}
		}
	}
	JOINT rThigh
	{
		OFFSET -5.308129 -1.633274 1.361059 
		CHANNELS 3 Xrotation Zrotation Yrotation
		JOINT rShin
		{
			OFFSET 2.041588 -20.007561 0.000000 
			CHANNELS 3 Xrotation Zrotation Yrotation
			JOINT rFoot
			{
				OFFSET 0.000000 -19.190928 -1.224953 
				CHANNELS 3 Xrotation Yrotation Zrotation
				End Site
				{
					OFFSET 0.000000 -2.449906 4.627600 
				}
			}
		}
	}
}
MOTION
Frames: 11
Frame Time: 0.016667
0.059444 41.175701 0.082446 -3.203280 0.565521 -1.789460 -17.628700 -0.595704 1.939220 27.483500 -1.686820 0.693340 -9.063560 -3.401180 8.995030 2.669940 2.111450 4.365610 2.000000 -2.000000 0.000000 95.136200 174.919006 1.013290 69.209503 -0.263378 0.127865 0.044683 0.004019 -135.485992 -2.000000 2.000000 0.000000 -91.543900 -177.757004 6.947800 -70.889198 0.259610 0.129189 -0.054460 0.004429 -138.503998 -13.122395 6.588445 0.246515 43.900467 2.695958 2.937078 -30.888130 18.441389 11.668916 -10.472686 -5.624961 4.346359 39.042728 -3.085942 -2.615675 -33.038864 -19.283976 -12.807379 
0.056191 41.106209 0.068069 -3.291290 0.740963 -1.771120 -17.277901 -0.873352 2.058430 28.198299 -2.061620 0.660784 -9.415440 -3.410130 9.000820 2.562360 2.033480 4.344100 2.000000 -2.000000 0.000000 95.585503 175.466003 1.024360 69.082603 -0.263661 0.127757 0.044675 0.003691 -135.602997 -2.000000 2.000000 0.000000 -91.133698 -178.225998 6.900090 -70.840401 0.259720 0.129151 -0.054450 0.004074 -138.376999 -12.785244 6.474925 0.677076 43.715172 2.685675 2.936309 -30.827686 18.281710 11.536681 -10.541447 -5.804189 4.438613 39.415924 -3.075006 -2.617185 -33.425766 -18.939255 -12.777257 
0.049099 41.051769 0.040260 -3.330470 0.877422 -1.750270 -17.014900 -1.079940 2.144780 28.717699 -2.329710 0.622905 -9.581440 -3.302340 9.004430 2.533050 2.033510 4.343060 2.000000 -2.000000 0.000000 95.907898 175.906006 1.005870 69.014198 -0.263813 0.127699 0.044672 0.003554 -135.651993 -2.000000 2.000000 0.000000 -90.821297 -178.615997 6.881490 -70.752502 0.259918 0.129082 -0.054448 0.003992 -138.348007 -12.635688 6.384141 0.983105 43.576202 2.711964 2.929552 -30.816536 18.176424 11.491187 -10.690012 -5.917017 4.634653 39.801392 -3.054953 -2.663428 -33.847504 -18.518490 -12.707080 
0.045839 41.028606 0.010643 -3.340240 0.887162 -1.760750 -16.917700 -1.146220 2.161790 28.894199 -2.425300 0.611375 -9.608820 -3.149000 8.968420 2.523340 2.092090 4.331420 2.000000 -2.000000 0.000000 95.956802 176.091003 0.947720 68.984901 -0.263878 0.127674 0.044676 0.003718 -135.593994 -2.000000 2.000000 0.000000 -90.704102 -178.753006 6.852520 -70.684097 0.260072 0.129028 -0.054450 0.004074 -138.376999 -12.585881 6.391929 1.108997 43.498196 2.699461 2.916235 -30.877892 18.153139 11.487415 -10.784351 -5.929162 4.643066 39.959286 -3.035059 -2.654375 -33.891766 -18.491934 -12.722272 
0.048048 41.032978 -0.014692 -3.330360 0.750683 -1.811260 -16.946501 -1.086470 2.154760 28.835699 -2.435320 0.622215 -9.635290 -3.095010 8.910240 2.494070 2.131170 4.309790 2.000000 -2.000000 0.000000 95.839500 176.082001 0.869572 68.984901 -0.263878 0.127674 0.044679 0.003855 -135.544998 -2.000000 2.000000 0.000000 -90.723602 -178.723999 6.842680 -70.625504 0.260204 0.128981 -0.054455 0.004238 -138.434998 -12.584826 6.559577 1.130303 43.489338 2.696464 2.934690 -30.896404 18.156029 11.505805 -10.855322 -5.772062 4.625786 39.959747 -3.033922 -2.663623 -33.784004 -18.644899 -12.744678 
0.051776 41.038895 -0.039132 -3.291180 0.575222 -1.917840 -16.965300 -1.044570 2.183360 28.806801 -2.512820 0.641554 -9.691310 -3.118780 8.855550 2.474500 2.111670 4.280290 2.000000 -2.000000 0.000000 95.829803 176.141006 0.850180 68.965401 -0.263922 0.127657 0.044675 0.003691 -135.602997 -2.000000 2.000000 0.000000 -90.674797 -178.763000 6.823240 -70.537598 0.260402 0.128912 -0.054458 0.004375 -138.483994 -12.707325 6.756458 1.180701 43.586723 2.704691 2.936275 -30.885733 18.181856 11.499608 -10.915038 -5.553229 4.753531 39.911037 -3.030095 -2.663063 -33.808647 -18.617876 -12.742987 
0.054839 41.044437 -0.063094 -3.252060 0.467995 -2.038310 -16.954800 -1.008840 2.223110 28.807100 -2.561140 0.663849 -9.778480 -3.237220 8.837120 2.454900 2.062880 4.251600 2.000000 -2.000000 0.000000 95.859100 176.315994 0.840833 68.867699 -0.264139 0.127573 0.044668 0.003390 -135.710999 -2.000000 2.000000 0.000000 -90.655197 -178.792007 6.823310 -70.537598 0.260402 0.128912 -0.054462 0.004511 -138.533005 -12.778707 6.900096 1.243394 43.615559 2.706939 2.926959 -30.916018 18.207325 11.525299 -10.900741 -5.391351 4.895313 39.735931 -3.012479 -2.659247 -33.686050 -18.775370 -12.810316 
0.057461 41.050598 -0.084861 -3.232500 0.409504 -2.132500 -16.896099 -0.956718 2.195240 28.885000 -2.502660 0.668839 -9.859280 -3.359890 8.888680 2.464620 2.014060 4.272800 2.000000 -2.000000 0.000000 95.780998 176.561005 0.694930 68.750504 -0.264400 0.127472 0.044667 0.003335 -135.729996 -2.000000 2.000000 0.000000 -90.713898 -178.860992 6.911370 -70.596199 0.260270 0.128958 -0.054463 0.004539 -138.542999 -12.747130 6.952854 1.269550 43.585934 2.712991 2.929622 -30.965370 18.221102 11.547037 -10.958209 -5.312299 4.979110 39.716354 -3.012449 -2.659634 -33.434982 -19.206326 -12.940677 
0.057312 41.056137 -0.109595 -3.222710 0.331506 -2.186630 -16.837700 -0.905491 2.137240 28.972500 -2.434470 0.655469 -9.901470 -3.432950 8.951140 2.464610 2.004300 4.302360 2.000000 -2.000000 0.000000 95.634598 176.727005 0.500014 68.711502 -0.264487 0.127438 0.044673 0.003609 -135.632996 -2.000000 2.000000 0.000000 -90.752899 -178.929001 6.960360 -70.674400 0.260094 0.129020 -0.054462 0.004511 -138.533005 -12.863259 7.044475 1.275893 43.653843 2.716250 2.920034 -30.922009 18.216148 11.534502 -10.978548 -5.146719 5.158349 39.657936 -3.007274 -2.658575 -33.406082 -19.439178 -13.067364 
0.056064 41.059879 -0.135193 -3.212920 0.263257 -2.212040 -16.817900 -0.883527 2.140210 29.001900 -2.443950 0.652791 -9.932330 -3.400970 8.985940 2.454850 2.014070 4.311520 2.000000 -2.000000 0.000000 95.546700 176.707993 0.392546 68.750504 -0.264400 0.127472 0.044686 0.004128 -135.447006 -2.000000 2.000000 0.000000 -90.704102 -178.938995 6.921320 -70.693901 0.260050 0.129035 -0.054461 0.004484 -138.522995 -12.907489 7.111959 1.244235 43.674381 2.704124 2.924689 -30.914345 18.205410 11.535604 -10.976255 -5.007312 5.358249 39.589340 -3.008350 -2.660002 -33.510345 -19.504431 -13.169734 
0.056768 41.064632 -0.159055 -3.183620 0.224263 -2.219510 -16.885900 -0.906652 2.189940 28.934000 -2.531330 0.672208 -9.969970 -3.305470 8.959240 2.396230 2.023900 4.299420 2.000000 -2.000000 0.000000 95.575897 176.513000 0.392080 68.848198 -0.264183 0.127556 0.044702 0.004730 -135.231995 -2.000000 2.000000 0.000000 -90.606400 -178.830994 6.794110 -70.703697 0.260028 0.129043 -0.054461 0.004484 -138.522995 -12.962627 7.142875 1.193836 43.674007 2.711630 2.927768 -30.894041 18.237202 11.554750 -11.014088 -4.936432 5.423071 39.550842 -3.004092 -2.669251 -33.546188 -19.516672 -13.201451 
